<svg xmlns="http://www.w3.org/2000/svg" xmlns:xlink="http://www.w3.org/1999/xlink" width="1280" zoomAndPan="magnify" viewBox="0 0 960 599.999999" height="800" preserveAspectRatio="xMidYMid meet" version="1.0"><defs><clipPath id="40be9b9bea"><path d="M 175 6.632812 L 785 6.632812 L 785 165 L 175 165 Z M 175 6.632812 " clip-rule="nonzero"/></clipPath><clipPath id="b67d440880"><path d="M 365 230 L 671 230 L 671 593.132812 L 365 593.132812 Z M 365 230 " clip-rule="nonzero"/></clipPath></defs><g clip-path="url(#40be9b9bea)"><path fill="#ffffff" d="M 751.917969 6.632812 C 736.664062 6.632812 724.273438 16.640625 719.984375 30.464844 L 699.488281 30.464844 C 644.675781 30.464844 599.394531 72.40625 595.105469 126.742188 C 579.851562 138.660156 560.789062 145.332031 540.769531 144.855469 C 524.5625 133.417969 505.976562 127.21875 485.957031 125.789062 C 482.621094 125.789062 478.804688 125.789062 475.46875 125.789062 C 455.453125 126.742188 436.863281 133.417969 420.65625 144.855469 C 400.640625 145.332031 381.574219 138.660156 366.320312 126.742188 C 361.078125 72.40625 315.796875 30.464844 260.984375 30.464844 L 240.492188 30.464844 C 236.199219 16.640625 223.808594 6.632812 208.554688 6.632812 C 189.96875 6.632812 175.191406 21.40625 175.191406 39.996094 C 175.191406 58.585938 189.96875 73.359375 208.554688 73.359375 C 223.808594 73.359375 236.199219 63.351562 240.492188 49.527344 L 260.984375 49.527344 C 307.21875 49.527344 344.871094 85.753906 346.78125 131.988281 C 346.78125 134.847656 348.210938 137.230469 350.117188 138.660156 C 370.609375 156.292969 396.824219 165.351562 423.515625 163.921875 C 424.945312 163.921875 426.378906 163.445312 427.332031 162.96875 C 427.808594 162.492188 428.285156 162.492188 428.761719 162.015625 C 442.105469 152.003906 458.3125 145.808594 474.992188 145.332031 C 474.992188 145.332031 475.46875 145.332031 475.46875 145.332031 C 478.328125 145.332031 481.191406 145.332031 484.050781 145.332031 C 484.050781 145.332031 484.050781 145.332031 484.527344 145.332031 C 501.683594 146.285156 517.890625 152.003906 531.234375 162.015625 C 532.1875 162.96875 533.621094 163.445312 535.050781 163.921875 C 535.527344 163.921875 536.003906 163.921875 536.480469 163.921875 C 538.386719 163.921875 540.292969 163.921875 541.722656 163.921875 C 566.984375 163.921875 590.816406 154.863281 609.878906 138.660156 C 612.265625 136.753906 613.21875 133.894531 613.21875 131.03125 C 615.601562 85.277344 652.777344 50.003906 699.011719 50.003906 L 719.507812 50.003906 C 723.796875 63.828125 736.1875 73.835938 751.441406 73.835938 C 770.027344 73.835938 784.804688 59.0625 784.804688 40.472656 C 784.804688 21.882812 770.503906 6.632812 751.917969 6.632812 Z M 208.554688 54.296875 C 200.453125 54.296875 194.257812 48.097656 194.257812 39.996094 C 194.257812 31.894531 200.453125 25.699219 208.554688 25.699219 C 216.660156 25.699219 222.855469 31.894531 222.855469 39.996094 C 222.855469 48.097656 216.660156 54.296875 208.554688 54.296875 Z M 751.917969 54.296875 C 743.8125 54.296875 737.617188 48.097656 737.617188 39.996094 C 737.617188 31.894531 743.8125 25.699219 751.917969 25.699219 C 760.019531 25.699219 766.214844 31.894531 766.214844 39.996094 C 766.214844 48.097656 760.019531 54.296875 751.917969 54.296875 Z M 751.917969 54.296875 " fill-opacity="1" fill-rule="nonzero"/></g><path fill="#ffffff" d="M 576.039062 273.070312 C 580.804688 263.058594 583.664062 251.621094 584.617188 240.183594 L 672.320312 240.183594 C 676.609375 254.003906 689 264.011719 704.253906 264.011719 C 722.84375 264.011719 737.617188 249.238281 737.617188 230.648438 C 737.617188 212.0625 722.84375 197.285156 704.253906 197.285156 C 689 197.285156 676.609375 207.292969 672.320312 221.117188 L 566.03125 221.117188 L 566.03125 230.648438 C 566.03125 247.332031 561.265625 263.058594 553.160156 275.929688 C 555.066406 276.40625 556.972656 277.359375 558.402344 278.3125 C 564.125 275.453125 569.84375 274.023438 576.039062 273.070312 Z M 704.253906 216.351562 C 712.355469 216.351562 718.550781 222.546875 718.550781 230.648438 C 718.550781 238.753906 712.355469 244.949219 704.253906 244.949219 C 696.152344 244.949219 689.953125 238.753906 689.953125 230.648438 C 689.953125 222.546875 696.152344 216.351562 704.253906 216.351562 Z M 704.253906 216.351562 " fill-opacity="1" fill-rule="nonzero"/><path fill="#ffffff" d="M 751.917969 387.9375 C 736.664062 387.9375 724.273438 397.945312 719.984375 411.769531 L 699.488281 411.769531 C 695.675781 411.769531 691.382812 411.292969 687.570312 410.816406 L 686.617188 429.882812 C 690.90625 430.359375 694.722656 430.835938 699.011719 430.835938 L 719.507812 430.835938 C 723.796875 444.65625 736.1875 454.667969 751.441406 454.667969 C 770.027344 454.667969 784.804688 439.890625 784.804688 421.300781 C 784.804688 402.714844 770.503906 387.9375 751.917969 387.9375 Z M 751.917969 435.601562 C 743.8125 435.601562 737.617188 429.40625 737.617188 421.300781 C 737.617188 413.199219 743.8125 407.003906 751.917969 407.003906 C 760.019531 407.003906 766.214844 413.199219 766.214844 421.300781 C 766.214844 429.40625 760.019531 435.601562 751.917969 435.601562 Z M 751.917969 435.601562 " fill-opacity="1" fill-rule="nonzero"/><g clip-path="url(#b67d440880)"><path fill="#ffffff" d="M 533.144531 291.65625 C 528.851562 291.65625 525.039062 292.136719 521.226562 293.566406 L 521.226562 268.78125 C 521.226562 247.808594 504.066406 230.648438 483.097656 230.648438 C 462.125 230.648438 444.964844 247.808594 444.964844 268.78125 L 444.964844 399.855469 L 433.050781 385.554688 C 425.902344 376.5 414.9375 371.253906 403.5 371.253906 C 394.441406 371.253906 385.863281 374.59375 379.191406 380.3125 C 363.460938 393.65625 361.078125 417.488281 374.425781 433.695312 L 446.394531 522.347656 L 447.824219 529.972656 C 453.546875 566.675781 484.527344 593.367188 521.703125 593.367188 L 589.386719 593.367188 C 629.898438 593.367188 662.785156 561.433594 664.214844 520.917969 L 670.890625 359.816406 C 671.367188 349.332031 667.554688 339.320312 660.402344 332.171875 C 653.253906 324.546875 643.722656 320.734375 633.234375 320.734375 C 628.945312 320.734375 624.65625 321.6875 620.84375 323.117188 C 617.507812 305.480469 602.253906 292.136719 584.140625 292.136719 L 583.664062 292.136719 C 574.132812 292.136719 565.554688 295.472656 558.882812 301.667969 C 552.207031 295.949219 543.628906 292.136719 534.097656 292.136719 L 533.144531 292.136719 Z M 552.207031 329.3125 L 552.207031 387.9375 L 564.601562 386.984375 L 564.601562 329.3125 C 564.601562 318.828125 572.703125 310.722656 583.1875 310.722656 L 583.664062 310.722656 C 593.675781 310.722656 602.253906 318.828125 602.253906 329.3125 L 602.253906 384.601562 L 614.648438 383.648438 L 614.648438 357.910156 C 614.648438 347.425781 622.75 339.320312 633.234375 339.320312 C 643.722656 339.320312 652.300781 347.902344 651.824219 358.386719 L 645.152344 519.488281 C 644.199219 549.515625 619.414062 573.824219 589.386719 573.824219 L 521.226562 573.824219 C 493.582031 573.824219 470.226562 553.804688 465.9375 526.636719 L 464.03125 513.769531 L 389.199219 421.300781 C 382.527344 413.199219 383.957031 401.285156 391.582031 394.609375 C 394.917969 391.75 399.6875 390.320312 403.976562 390.320312 C 409.695312 390.320312 414.9375 392.703125 418.75 397.46875 L 464.507812 453.714844 L 464.507812 268.78125 C 464.507812 258.292969 473.085938 249.714844 483.574219 249.714844 C 494.058594 249.714844 502.636719 258.292969 502.636719 268.78125 L 502.636719 391.273438 L 515.03125 390.320312 L 515.03125 329.3125 C 515.03125 318.828125 523.132812 310.722656 533.621094 310.722656 L 534.097656 310.722656 C 543.628906 310.722656 552.207031 318.828125 552.207031 329.3125 Z M 552.207031 329.3125 " fill-opacity="1" fill-rule="nonzero"/></g><path fill="#ffffff" d="M 480.238281 163.921875 C 443.535156 163.921875 413.507812 193.949219 413.507812 230.648438 C 413.507812 244.949219 418.273438 258.292969 425.902344 269.257812 L 425.902344 268.304688 C 425.902344 257.816406 428.761719 248.285156 433.527344 240.183594 C 433.050781 236.84375 432.574219 233.984375 432.574219 230.171875 C 432.574219 203.957031 454.023438 182.507812 480.238281 182.507812 C 506.453125 182.507812 527.898438 203.957031 527.898438 230.171875 C 527.898438 231.125 527.898438 232.078125 527.898438 233.03125 C 534.097656 241.136719 538.386719 250.667969 539.816406 260.675781 C 544.582031 251.621094 547.441406 241.136719 547.441406 230.171875 C 546.964844 193.949219 516.9375 163.921875 480.238281 163.921875 Z M 480.238281 163.921875 " fill-opacity="1" fill-rule="nonzero"/><path fill="#ffffff" d="M 346.78125 330.742188 C 344.394531 376.5 307.21875 411.769531 260.984375 411.769531 L 240.492188 411.769531 C 236.199219 397.945312 223.808594 387.9375 208.554688 387.9375 C 189.96875 387.9375 175.191406 402.714844 175.191406 421.300781 C 175.191406 439.890625 189.96875 454.667969 208.554688 454.667969 C 223.808594 454.667969 236.199219 444.65625 240.492188 430.835938 L 260.984375 430.835938 C 315.796875 430.835938 361.078125 388.890625 365.367188 334.554688 C 380.621094 322.640625 399.6875 315.964844 419.703125 316.441406 C 421.132812 317.394531 422.5625 318.351562 423.992188 319.304688 C 423.992188 319.304688 424.46875 319.304688 424.46875 319.78125 C 424.945312 320.257812 425.425781 320.257812 425.902344 320.734375 L 425.902344 297.378906 C 406.835938 281.648438 394.441406 257.816406 394.441406 231.125 L 394.441406 221.59375 L 288.152344 221.59375 C 283.863281 207.769531 271.472656 197.761719 256.21875 197.761719 C 237.628906 197.761719 222.855469 212.539062 222.855469 231.125 C 222.855469 249.714844 237.628906 264.488281 256.21875 264.488281 C 271.472656 264.488281 283.863281 254.480469 288.152344 240.660156 L 375.855469 240.660156 C 377.761719 263.058594 386.816406 283.078125 400.640625 299.285156 C 382.050781 302.621094 364.414062 310.722656 349.640625 323.117188 C 347.734375 324.546875 346.78125 327.40625 346.78125 330.742188 Z M 208.554688 435.601562 C 200.453125 435.601562 194.257812 429.40625 194.257812 421.300781 C 194.257812 413.199219 200.453125 407.003906 208.554688 407.003906 C 216.660156 407.003906 222.855469 413.199219 222.855469 421.300781 C 222.855469 429.40625 216.660156 435.601562 208.554688 435.601562 Z M 256.21875 244.949219 C 248.117188 244.949219 241.921875 238.753906 241.921875 230.648438 C 241.921875 222.546875 248.117188 216.351562 256.21875 216.351562 C 264.320312 216.351562 270.519531 222.546875 270.519531 230.648438 C 270.519531 238.753906 264.320312 244.949219 256.21875 244.949219 Z M 256.21875 244.949219 " fill-opacity="1" fill-rule="nonzero"/></svg>